<svg id="Group_7" data-name="Group 7" xmlns="http://www.w3.org/2000/svg" xmlns:xlink="http://www.w3.org/1999/xlink" width="1440" height="899" viewBox="0 0 1440 899">
  <defs>
    <linearGradient id="linear-gradient" x1="0.5" y1="0.087" x2="0.5" y2="0.5" gradientUnits="objectBoundingBox">
      <stop offset="0" stop-opacity="0"/>
      <stop offset="1" stop-opacity="0.902"/>
    </linearGradient>
  </defs>
  <g id="Group_2" data-name="Group 2">
    <g id="Grid" transform="translate(-1588.298 -192.053)">
      <path id="Path_21" data-name="Path 21" d="M55.915,900.912v0Z" transform="translate(1587 190)" fill="none" stroke="#272727" stroke-width="1"/>
      <line id="Line_2" data-name="Line 2" y2="898.858" transform="translate(1642.915 192.053)" fill="none" stroke="#272727" stroke-width="1"/>
      <path id="Path_23" data-name="Path 23" d="M1.3,60.5h0Z" transform="translate(1587 190)" fill="none" stroke="#272727" stroke-width="1"/>
      <line id="Line_4" data-name="Line 4" x1="1439.77" transform="translate(1588.298 250.5)" fill="none" stroke="#272727" stroke-width="1"/>
      <path id="Path_24" data-name="Path 24" d="M1.3,120.5h0Z" transform="translate(1587 190)" fill="none" stroke="#272727" stroke-width="1"/>
      <line id="Line_5" data-name="Line 5" x1="1439.77" transform="translate(1588.298 310.5)" fill="none" stroke="#272727" stroke-width="1"/>
      <path id="Path_25" data-name="Path 25" d="M1.3,180.5h0Z" transform="translate(1587 190)" fill="none" stroke="#272727" stroke-width="1"/>
      <line id="Line_6" data-name="Line 6" x1="1439.77" transform="translate(1588.298 370.5)" fill="none" stroke="#272727" stroke-width="1"/>
      <path id="Path_26" data-name="Path 26" d="M1.3,240.5h0Z" transform="translate(1587 190)" fill="none" stroke="#272727" stroke-width="1"/>
      <line id="Line_7" data-name="Line 7" x1="1439.77" transform="translate(1588.298 430.5)" fill="none" stroke="#272727" stroke-width="1"/>
      <path id="Path_27" data-name="Path 27" d="M1.3,300.5h0Z" transform="translate(1587 190)" fill="none" stroke="#272727" stroke-width="1"/>
      <line id="Line_8" data-name="Line 8" x1="1439.77" transform="translate(1588.298 490.5)" fill="none" stroke="#272727" stroke-width="1"/>
      <path id="Path_28" data-name="Path 28" d="M1.3,360.5h0Z" transform="translate(1587 190)" fill="none" stroke="#272727" stroke-width="1"/>
      <line id="Line_9" data-name="Line 9" x1="1439.77" transform="translate(1588.298 550.5)" fill="none" stroke="#272727" stroke-width="1"/>
      <path id="Path_29" data-name="Path 29" d="M1.3,420.5h0Z" transform="translate(1587 190)" fill="none" stroke="#272727" stroke-width="1"/>
      <line id="Line_10" data-name="Line 10" x1="1439.77" transform="translate(1588.298 610.5)" fill="none" stroke="#272727" stroke-width="1"/>
      <path id="Path_30" data-name="Path 30" d="M1.3,480.5h0Z" transform="translate(1587 190)" fill="none" stroke="#272727" stroke-width="1"/>
      <line id="Line_11" data-name="Line 11" x1="1439.77" transform="translate(1588.298 670.5)" fill="none" stroke="#272727" stroke-width="1"/>
      <path id="Path_31" data-name="Path 31" d="M1.3,540.5h0Z" transform="translate(1587 190)" fill="none" stroke="#272727" stroke-width="1"/>
      <line id="Line_12" data-name="Line 12" x1="1439.77" transform="translate(1588.298 730.5)" fill="none" stroke="#272727" stroke-width="1"/>
      <path id="Path_32" data-name="Path 32" d="M1.3,600.5h0Z" transform="translate(1587 190)" fill="none" stroke="#272727" stroke-width="1"/>
      <line id="Line_13" data-name="Line 13" x1="1439.77" transform="translate(1588.298 790.5)" fill="none" stroke="#272727" stroke-width="1"/>
      <path id="Path_33" data-name="Path 33" d="M1.3,660.5h0Z" transform="translate(1587 190)" fill="none" stroke="#272727" stroke-width="1"/>
      <line id="Line_14" data-name="Line 14" x1="1439.77" transform="translate(1588.298 850.5)" fill="none" stroke="#272727" stroke-width="1"/>
      <path id="Path_34" data-name="Path 34" d="M1.3,720.5h0Z" transform="translate(1587 190)" fill="none" stroke="#272727" stroke-width="1"/>
      <line id="Line_15" data-name="Line 15" x1="1439.77" transform="translate(1588.298 910.5)" fill="none" stroke="#272727" stroke-width="1"/>
      <path id="Path_35" data-name="Path 35" d="M1.3,780.5h0Z" transform="translate(1587 190)" fill="none" stroke="#272727" stroke-width="1"/>
      <line id="Line_16" data-name="Line 16" x1="1439.77" transform="translate(1588.298 970.5)" fill="none" stroke="#272727" stroke-width="1"/>
      <path id="Path_36" data-name="Path 36" d="M1.3,840.5h0Z" transform="translate(1587 190)" fill="none" stroke="#272727" stroke-width="1"/>
      <line id="Line_17" data-name="Line 17" x1="1439.77" transform="translate(1588.298 1030.5)" fill="none" stroke="#272727" stroke-width="1"/>
      <path id="Path_38" data-name="Path 38" d="M111.331,900.912v0Z" transform="translate(1587 190)" fill="none" stroke="#272727" stroke-width="1"/>
      <line id="Line_19" data-name="Line 19" y2="898.858" transform="translate(1698.331 192.053)" fill="none" stroke="#272727" stroke-width="1"/>
      <path id="Path_39" data-name="Path 39" d="M166.746,900.912v0Z" transform="translate(1587 190)" fill="none" stroke="#272727" stroke-width="1"/>
      <line id="Line_20" data-name="Line 20" y2="898.858" transform="translate(1753.746 192.053)" fill="none" stroke="#272727" stroke-width="1"/>
      <path id="Path_40" data-name="Path 40" d="M222.161,900.912v0Z" transform="translate(1587 190)" fill="none" stroke="#272727" stroke-width="1"/>
      <line id="Line_21" data-name="Line 21" y2="898.858" transform="translate(1809.161 192.053)" fill="none" stroke="#272727" stroke-width="1"/>
      <path id="Path_41" data-name="Path 41" d="M277.576,900.912v0Z" transform="translate(1587 190)" fill="none" stroke="#272727" stroke-width="1"/>
      <line id="Line_22" data-name="Line 22" y2="898.858" transform="translate(1864.577 192.053)" fill="none" stroke="#272727" stroke-width="1"/>
      <path id="Path_42" data-name="Path 42" d="M332.992,900.912v0Z" transform="translate(1587 190)" fill="none" stroke="#272727" stroke-width="1"/>
      <line id="Line_23" data-name="Line 23" y2="898.858" transform="translate(1919.992 192.053)" fill="none" stroke="#272727" stroke-width="1"/>
      <path id="Path_43" data-name="Path 43" d="M388.408,900.912v0Z" transform="translate(1587 190)" fill="none" stroke="#272727" stroke-width="1"/>
      <line id="Line_24" data-name="Line 24" y2="898.858" transform="translate(1975.407 192.053)" fill="none" stroke="#272727" stroke-width="1"/>
      <path id="Path_44" data-name="Path 44" d="M443.822,900.912v0Z" transform="translate(1587 190)" fill="none" stroke="#272727" stroke-width="1"/>
      <line id="Line_25" data-name="Line 25" y2="898.858" transform="translate(2030.823 192.053)" fill="none" stroke="#272727" stroke-width="1"/>
      <path id="Path_45" data-name="Path 45" d="M499.238,900.912v0Z" transform="translate(1587 190)" fill="none" stroke="#272727" stroke-width="1"/>
      <line id="Line_26" data-name="Line 26" y2="898.858" transform="translate(2086.238 192.053)" fill="none" stroke="#272727" stroke-width="1"/>
      <path id="Path_46" data-name="Path 46" d="M554.653,900.912v0Z" transform="translate(1587 190)" fill="none" stroke="#272727" stroke-width="1"/>
      <line id="Line_27" data-name="Line 27" y2="898.858" transform="translate(2141.653 192.053)" fill="none" stroke="#272727" stroke-width="1"/>
      <path id="Path_47" data-name="Path 47" d="M610.069,900.912v0Z" transform="translate(1587 190)" fill="none" stroke="#272727" stroke-width="1"/>
      <line id="Line_28" data-name="Line 28" y2="898.858" transform="translate(2197.068 192.053)" fill="none" stroke="#272727" stroke-width="1"/>
      <path id="Path_48" data-name="Path 48" d="M665.483,900.912v0Z" transform="translate(1587 190)" fill="none" stroke="#272727" stroke-width="1"/>
      <line id="Line_29" data-name="Line 29" y2="898.858" transform="translate(2252.484 192.053)" fill="none" stroke="#272727" stroke-width="1"/>
      <path id="Path_49" data-name="Path 49" d="M720.9,900.912v0Z" transform="translate(1587 190)" fill="none" stroke="#272727" stroke-width="1"/>
      <line id="Line_30" data-name="Line 30" y2="898.858" transform="translate(2307.899 192.053)" fill="none" stroke="#272727" stroke-width="1"/>
      <path id="Path_50" data-name="Path 50" d="M776.315,900.912v0Z" transform="translate(1587 190)" fill="none" stroke="#272727" stroke-width="1"/>
      <line id="Line_31" data-name="Line 31" y2="898.858" transform="translate(2363.314 192.053)" fill="none" stroke="#272727" stroke-width="1"/>
      <path id="Path_51" data-name="Path 51" d="M831.73,900.912v0Z" transform="translate(1587 190)" fill="none" stroke="#272727" stroke-width="1"/>
      <line id="Line_32" data-name="Line 32" y2="898.858" transform="translate(2418.73 192.053)" fill="none" stroke="#272727" stroke-width="1"/>
      <path id="Path_52" data-name="Path 52" d="M887.145,900.912v0Z" transform="translate(1587 190)" fill="none" stroke="#272727" stroke-width="1"/>
      <line id="Line_33" data-name="Line 33" y2="898.858" transform="translate(2474.145 192.053)" fill="none" stroke="#272727" stroke-width="1"/>
      <path id="Path_53" data-name="Path 53" d="M942.56,900.912v0Z" transform="translate(1587 190)" fill="none" stroke="#272727" stroke-width="1"/>
      <line id="Line_34" data-name="Line 34" y2="898.858" transform="translate(2529.561 192.053)" fill="none" stroke="#272727" stroke-width="1"/>
      <path id="Path_54" data-name="Path 54" d="M997.976,900.912v0Z" transform="translate(1587 190)" fill="none" stroke="#272727" stroke-width="1"/>
      <line id="Line_35" data-name="Line 35" y2="898.858" transform="translate(2584.976 192.053)" fill="none" stroke="#272727" stroke-width="1"/>
      <path id="Path_55" data-name="Path 55" d="M1053.391,900.912v0Z" transform="translate(1587 190)" fill="none" stroke="#272727" stroke-width="1"/>
      <line id="Line_36" data-name="Line 36" y2="898.858" transform="translate(2640.391 192.053)" fill="none" stroke="#272727" stroke-width="1"/>
      <path id="Path_56" data-name="Path 56" d="M1108.806,900.912v0Z" transform="translate(1587 190)" fill="none" stroke="#272727" stroke-width="1"/>
      <line id="Line_37" data-name="Line 37" y2="898.858" transform="translate(2695.806 192.053)" fill="none" stroke="#272727" stroke-width="1"/>
      <path id="Path_57" data-name="Path 57" d="M1164.221,900.912v0Z" transform="translate(1587 190)" fill="none" stroke="#272727" stroke-width="1"/>
      <line id="Line_38" data-name="Line 38" y2="898.858" transform="translate(2751.222 192.053)" fill="none" stroke="#272727" stroke-width="1"/>
      <path id="Path_58" data-name="Path 58" d="M1219.637,900.912v0Z" transform="translate(1587 190)" fill="none" stroke="#272727" stroke-width="1"/>
      <line id="Line_39" data-name="Line 39" y2="898.858" transform="translate(2806.637 192.053)" fill="none" stroke="#272727" stroke-width="1"/>
      <path id="Path_59" data-name="Path 59" d="M1275.052,900.912v0Z" transform="translate(1587 190)" fill="none" stroke="#272727" stroke-width="1"/>
      <line id="Line_40" data-name="Line 40" y2="898.858" transform="translate(2862.052 192.053)" fill="none" stroke="#272727" stroke-width="1"/>
      <path id="Path_60" data-name="Path 60" d="M1330.467,900.912v0Z" transform="translate(1587 190)" fill="none" stroke="#272727" stroke-width="1"/>
      <line id="Line_41" data-name="Line 41" y2="898.858" transform="translate(2917.468 192.053)" fill="none" stroke="#272727" stroke-width="1"/>
      <path id="Path_61" data-name="Path 61" d="M1385.883,900.912v0Z" transform="translate(1587 190)" fill="none" stroke="#272727" stroke-width="1"/>
      <line id="Line_42" data-name="Line 42" y2="898.858" transform="translate(2972.883 192.053)" fill="none" stroke="#272727" stroke-width="1"/>
    </g>
    <rect id="Rectangle_5" data-name="Rectangle 5" width="1440" height="728" transform="translate(0 171)" fill="url(#linear-gradient)"/>
  </g>
</svg>
